<?xml version="1.0" encoding="UTF-8"?><svg id="Layer_1" xmlns="http://www.w3.org/2000/svg" viewBox="0 0 400 107.41"><path d="M9.83,0c-2.83,0-5.17.96-7.03,2.87C.93,4.79,0,7.16,0,9.98s.93,5.2,2.8,7.11c1.86,1.92,4.21,2.87,7.03,2.87s5.29-.96,7.11-2.87c1.82-1.91,2.72-4.29,2.72-7.11s-.91-5.19-2.72-7.11c-1.82-1.91-4.19-2.87-7.11-2.87Z"/><rect x="1.51" y="33.28" width="16.64" height="72.62"/><rect x="1.51" y="33.28" width="16.64" height="72.62"/><path d="M83.51,35.93c-4.24-2.77-9.08-4.16-14.52-4.16s-10.16,1.24-14.45,3.71c-2.8,1.61-5.19,3.62-7.19,6v-8.19h-16.64v72.62h16.64v-41.91c0-3.23.7-6.1,2.12-8.62,1.41-2.52,3.38-4.49,5.9-5.9,2.52-1.41,5.39-2.12,8.62-2.12,4.84,0,8.8,1.56,11.88,4.69,3.08,3.13,4.61,7.11,4.61,11.95v41.91h16.64v-45.54c0-4.74-1.21-9.3-3.63-13.69-2.42-4.39-5.75-7.97-9.98-10.74Z"/><path d="M160.82,35.93c-4.24-2.77-9.08-4.16-14.52-4.16s-10.16,1.24-14.45,3.71c-2.8,1.61-5.19,3.62-7.19,6v-8.19h-16.64v72.62h16.64v-41.91c0-3.23.7-6.1,2.12-8.62,1.41-2.52,3.38-4.49,5.9-5.9,2.52-1.41,5.39-2.12,8.62-2.12,4.84,0,8.8,1.56,11.88,4.69,3.08,3.13,4.61,7.11,4.61,11.95v41.91h16.64v-45.54c0-4.74-1.21-9.3-3.63-13.69-2.42-4.39-5.75-7.97-9.98-10.74Z"/><path d="M237.97,36.76c-5.75-3.33-12.2-4.99-19.36-4.99s-13.46,1.69-19.21,5.07c-5.75,3.38-10.31,7.89-13.69,13.54-3.38,5.65-5.07,12-5.07,19.06s1.69,13.46,5.07,19.21c3.38,5.75,7.94,10.31,13.69,13.69,5.75,3.38,12.15,5.07,19.21,5.07s13.62-1.69,19.36-5.07c5.75-3.38,10.31-7.94,13.69-13.69,3.38-5.75,5.07-12.15,5.07-19.21s-1.69-13.44-5.07-19.14c-3.38-5.7-7.94-10.21-13.69-13.54ZM236.99,80.79c-1.77,3.33-4.24,5.93-7.41,7.79-3.18,1.87-6.83,2.8-10.97,2.8s-7.64-.93-10.82-2.8c-3.18-1.87-5.65-4.46-7.41-7.79-1.77-3.33-2.65-7.11-2.65-11.35s.88-7.97,2.65-11.19c1.76-3.23,4.24-5.77,7.41-7.64,3.18-1.86,6.78-2.8,10.82-2.8s7.76.93,10.89,2.8c3.13,1.87,5.6,4.41,7.41,7.64,1.82,3.23,2.72,6.96,2.72,11.19s-.88,8.02-2.65,11.35Z"/><polygon points="311.65 33.28 291.69 79.72 271.86 33.28 253.4 33.28 286.53 105.9 296.22 105.9 329.35 33.28 311.65 33.28"/><path d="M383.36,33.28v8.09c-2.09-2.42-4.58-4.44-7.49-6.05-4.29-2.37-9.21-3.55-14.75-3.55-6.56,0-12.48,1.69-17.78,5.07-5.3,3.38-9.48,7.92-12.56,13.62-3.08,5.7-4.61,12.13-4.61,19.29s1.54,13.44,4.61,19.14c3.08,5.7,7.26,10.21,12.56,13.54,5.29,3.33,11.22,4.99,17.78,4.99,5.55,0,10.49-1.19,14.83-3.56,2.89-1.58,5.35-3.56,7.41-5.92v7.96h16.64V33.28h-16.64ZM378.74,85.48c-3.78,4.14-8.75,6.2-14.9,6.2-4.04,0-7.59-.93-10.67-2.8-3.08-1.86-5.5-4.46-7.26-7.79-1.77-3.33-2.65-7.16-2.65-11.5s.88-8.17,2.65-11.5c1.76-3.33,4.18-5.92,7.26-7.79,3.08-1.86,6.63-2.8,10.67-2.8s7.74.93,10.82,2.8c3.07,1.87,5.47,4.46,7.19,7.79,1.71,3.33,2.57,7.16,2.57,11.5,0,6.46-1.89,11.75-5.67,15.89Z"/></svg>