<?xml version="1.0" encoding="UTF-8"?><svg id="Layer_1" xmlns="http://www.w3.org/2000/svg" viewBox="0 0 1000 268.54"><defs><style>.cls-1{fill:#fff;}</style></defs><path class="cls-1" d="M24.58,0c-7.06,0-12.92,2.4-17.59,7.19C2.33,11.98,0,17.91,0,24.96s2.33,12.99,7,17.78c4.66,4.79,10.52,7.19,17.59,7.19s13.24-2.39,17.78-7.19c4.54-4.79,6.81-10.71,6.81-17.78s-2.27-12.98-6.81-17.78C37.82,2.4,31.89,0,24.58,0Z"/><rect class="cls-1" x="3.78" y="83.21" width="41.6" height="181.54"/><rect class="cls-1" x="3.78" y="83.21" width="41.6" height="181.54"/><path class="cls-1" d="M208.77,89.83c-10.59-6.93-22.69-10.4-36.31-10.4s-25.41,3.09-36.12,9.26c-6.99,4.03-12.96,9.04-17.97,14.99v-20.48h-41.6v181.54h41.6v-104.77c0-8.07,1.76-15.25,5.3-21.56,3.53-6.3,8.45-11.22,14.75-14.75,6.3-3.53,13.49-5.29,21.56-5.29,12.1,0,22,3.91,29.69,11.72,7.69,7.82,11.54,17.78,11.54,29.88v104.77h41.6v-113.84c0-11.85-3.03-23.26-9.08-34.23-6.05-10.97-14.37-19.92-24.96-26.86Z"/><path class="cls-1" d="M402.04,89.83c-10.59-6.93-22.69-10.4-36.31-10.4s-25.41,3.09-36.12,9.26c-6.99,4.03-12.96,9.04-17.97,14.99v-20.48h-41.6v181.54h41.6v-104.77c0-8.07,1.76-15.25,5.3-21.56,3.53-6.3,8.45-11.22,14.75-14.75,6.3-3.53,13.49-5.29,21.56-5.29,12.1,0,22,3.91,29.69,11.72,7.69,7.82,11.54,17.78,11.54,29.88v104.77h41.6v-113.84c0-11.85-3.03-23.26-9.08-34.23-6.05-10.97-14.37-19.92-24.96-26.86Z"/><path class="cls-1" d="M594.93,91.91c-14.37-8.32-30.51-12.48-48.41-12.48s-33.66,4.22-48.03,12.67c-14.37,8.45-25.78,19.73-34.23,33.85-8.45,14.12-12.67,30.01-12.67,47.65s4.22,33.66,12.67,48.04c8.45,14.37,19.86,25.78,34.23,34.23,14.37,8.45,30.38,12.67,48.03,12.67s34.04-4.22,48.41-12.67c14.37-8.45,25.78-19.86,34.23-34.23,8.45-14.38,12.67-30.38,12.67-48.04s-4.23-33.59-12.67-47.84c-8.45-14.24-19.86-25.53-34.23-33.85ZM592.47,201.97c-4.41,8.32-10.59,14.81-18.53,19.48-7.94,4.67-17.08,7-27.42,7s-19.1-2.33-27.04-7c-7.94-4.67-14.12-11.16-18.53-19.48-4.42-8.32-6.62-17.78-6.62-28.37s2.2-19.91,6.62-27.99c4.41-8.07,10.59-14.43,18.53-19.1,7.94-4.66,16.96-7,27.04-7s19.41,2.34,27.23,7c7.81,4.67,14,11.03,18.53,19.1,4.54,8.07,6.81,17.4,6.81,27.99s-2.21,20.05-6.62,28.37Z"/><polygon class="cls-1" points="779.12 83.21 729.24 199.31 679.65 83.21 633.51 83.21 716.34 264.75 740.54 264.75 823.37 83.21 779.12 83.21"/><path class="cls-1" d="M958.4,83.21v20.22c-5.24-6.04-11.46-11.1-18.72-15.12-10.72-5.92-23.01-8.89-36.88-8.89-16.39,0-31.2,4.22-44.44,12.67-13.24,8.45-23.7,19.8-31.39,34.04-7.69,14.25-11.53,30.32-11.53,48.22s3.84,33.6,11.53,47.84c7.69,14.25,18.15,25.53,31.39,33.85,13.24,8.32,28.05,12.48,44.44,12.48,13.86,0,26.22-2.97,37.07-8.89,7.22-3.94,13.38-8.89,18.53-14.79v19.9h41.6V83.21h-41.6ZM946.86,213.69c-9.46,10.34-21.88,15.51-37.25,15.51-10.09,0-18.98-2.33-26.66-7-7.7-4.66-13.75-11.16-18.15-19.48-4.42-8.32-6.62-17.9-6.62-28.75s2.2-20.42,6.62-28.74c4.41-8.32,10.46-14.81,18.15-19.48,7.69-4.66,16.58-7,26.66-7s19.35,2.33,27.04,7c7.69,4.67,13.67,11.16,17.96,19.48,4.29,8.32,6.43,17.91,6.43,28.74,0,16.14-4.73,29.38-14.18,39.71Z"/></svg>